<?xml version="1.0"?>
<svg version="1.1" xmlns="http://www.w3.org/2000/svg" width="200" height="115" style=""><path fill="#aefeff" d="M56.145,94.745q0,4.355,4.355,4.355q5.85,0,14.105-8.45q7.475-7.54,11.4075-15.3725t3.9325-11.9275q0-0.65-0.13-1.3q-1.43,0-2.925-1.495l0,0.065q-0.975-0.78-0.975-1.5925t0.65-1.3325t1.69-0.52t1.4625,0.8125t1.0725,1.4625t0.585,0.91q0.39,0.585,1.2025,0.585t1.8525-0.78t1.6575-0.78t0.6175,0.39q0,0.715-1.235,1.365q-0.65,0.52-1.56,0.585l-2.08,0q0.78,2.665,0.78,3.835q0,5.2-4.9725,13.52t-12.7725,14.755q-7.865,6.63-14.2675,6.63t-6.4025-6.24q0-4.94,4.16-14.105l4.68-10.205l-6.37,4.94q-2.99,2.47-6.0775,5.4275t-10.7575,12.1875l-7.54,9.23q-1.82,2.08-3.25,2.08q-1.105,0-1.105-1.43t1.17-3.705l12.545-18.07q11.375-16.705,11.375-21.19q0-2.47-4.55-2.47q-5.525,0-15.405,6.76q-5.33,3.64-9.36,9.1325t-4.03,9.1t4.81,3.6075q4.485,0,9.23-4.16q1.69-1.43,1.95-1.43t0.195,0.455q-0.715,2.47-5.2975,4.7125t-8.0925,2.2425q-0.91,0-1.235-0.065l-0.065,0q-5.2-1.105-5.2-5.135t4.485-9.685q7.93-10.01,20.41-14.885q6.435-2.47,10.595-2.47q5.135,0,5.135,3.38q0,7.02-17.68,30.485q-5.915,7.865-5.98,7.865q0.195,0,6.7925-7.345t12.5125-12.545q2.275-2.015,7.865-7.41q2.925-2.73,6.305-4.94q0.845-0.52,2.4375-0.52t2.1775,0.91q-5.98,7.41-10.4325,16.6075t-4.4525,13.1625z M93.91,61.725l0.065,0l-0.065,0z M107.60355,70.5975q0.8775,0.6175,0.8775,1.4625t-0.8125,1.4625t-1.7875,0.6175t-1.7875-0.715t-0.8125-1.625q0-1.82,2.47-1.82q0.975,0,1.8525,0.6175z M93.98605,97.215q-3.315,0-3.315-4.29q0-3.51,3.835-9.7175t6.175-6.2725q0.65,0,1.4625,0.52t0.8125,1.04q-0.325,0.455-0.78,1.0075t-0.975,1.2025t-1.43,1.8525t-1.755,2.3075q-4.875,6.305-4.875,8.6775t1.625,2.3725q1.365,0,3.705-1.495q5.46-3.38,8.645-7.41q1.17-1.495,1.5925-1.495t0.4225,0.52t-1.495,2.08t-2.3725,2.47t-1.2025,1.2025t-1.2025,1.105t-1.3325,1.1375t-1.3,0.975t-1.495,0.9425t-1.495,0.6825q-1.365,0.585-3.25,0.585z M119.6721,75.96q1.755,0,1.755,1.365q0,0.39-0.195,0.78q-5.85,8.125-7.02,12.285q15.145-15.145,18.395-15.145q0.325-0.065,0.585-0.065q1.82,0,1.82,1.625q0,0.325-0.13,0.65t-2.6,3.51q-2.86,3.38-4.8425,6.5t-1.9825,5.2t0.91,2.08q2.86,0,9.945-7.865q0.13-0.13,0.455-0.585q0.975-1.17,1.17-1.17t0.195,0.65t-0.91,1.69q-8.06,9.165-11.44,9.165q-3.185,0-3.185-3.51t2.6-8.06l4.16-6.76q-4.42,3.25-7.865,7.1175t-6.2725,7.5075t-3.2825,3.64q-0.975,0-1.5275-0.8125t-0.5525-2.015t0.845-3.2175t2.145-4.875l-3.9,4.095q-1.43,1.43-1.7875,1.43t-0.3575-0.4225t0.52-0.9425q2.405-2.405,4.16-4.615q1.69-2.21,6.955-8.45q0.585-0.78,1.235-0.78z M159.59315,76.805q7.28-11.83,10.14-11.83q0.455,0,1.2675,0.2925t0.8125,0.8775q0,0.325-0.325,0.845q-5.2,6.37-7.735,9.555q-7.67,9.685-8.45,13.91q-0.195,0.91-0.195,1.82q0,2.925,2.405,2.925q4.81,0,12.545-8.905q0.65-0.65,1.105-0.7475t0.455,0.2275t-0.39,0.78q-7.54,9.035-13.39,10.075q-0.325,0.065-0.91,0.065q-2.015,0-3.0225-1.3975t-1.0075-3.0225q0-1.82,0.715-4.03l-5.265,5.265q-3.575,3.315-5.6225,3.315t-3.4125-1.105q-1.625-1.235-1.625-3.445q0-4.745,6.63-11.3425t12.155-6.5975q1.82,0,2.535,0.975q0.26,0.325,0.585,1.495z M140.41815,93.055q0,2.34,1.625,2.34q2.795,0,9.295-7.67q1.17-1.365,7.8-10.205q-0.455-0.78-1.56-0.78q-4.03,0-10.595,6.1425t-6.565,10.1725z"/><path fill="#" d=""/></svg>
